<?xml version="1.0" encoding="UTF-8"?>
<svg width="153px" height="124px" viewBox="0 0 153 124" version="1.1" xmlns="http://www.w3.org/2000/svg" xmlns:xlink="http://www.w3.org/1999/xlink">
    <!-- Generator: Sketch 45.2 (43514) - http://www.bohemiancoding.com/sketch -->
    <title>Group 4</title>
    <desc>Created with Sketch.</desc>
    <defs>
        <linearGradient x1="37.2865131%" y1="5.63987622%" x2="71.6981849%" y2="89.8937724%" id="linearGradient-1">
            <stop stop-color="#B6342C" offset="0%"></stop>
            <stop stop-color="#ECA040" offset="100%"></stop>
        </linearGradient>
        <ellipse id="path-2" cx="20.9305019" cy="20.8668281" rx="20.9305019" ry="20.8668281"></ellipse>
    </defs>
    <g id="Welcome" stroke="none" stroke-width="1" fill="none" fill-rule="evenodd">
        <g id="Desktop-HD" transform="translate(-43.000000, 0.000000)">
            <g id="Header" transform="translate(30.000000, -43.000000)">
                <g id="Group-4">
                    <polygon id="Polygon" fill="url(#linearGradient-1)" transform="translate(94.000000, 94.000000) rotate(-10.000000) translate(-94.000000, -94.000000) " points="94 13 171.035578 68.9696235 141.610605 159.530377 46.3893946 159.530377 16.9644222 68.9696235"></polygon>
                    <rect id="Rectangle-2" fill="#000000" x="51" y="55" width="85" height="85"></rect>
                    <g id="Crossover-Logo-White" transform="translate(54.590122, 66.497530)">
                        <path d="M6.78368599,53.2272252 C6.35302747,53.0476795 5.90671533,52.957908 5.44473618,52.957908 C4.81049363,52.957908 4.22911334,53.1101292 3.70057788,53.4145763 C3.17204242,53.7190233 2.75313541,54.1347044 2.44384429,54.661632 C2.13455317,55.1885595 1.97990993,55.7642681 1.97990993,56.3887748 C1.97990993,57.0132816 2.13455317,57.5870385 2.44384429,58.110063 C2.75313541,58.6330874 3.17204242,59.0487684 3.70057788,59.3571186 C4.22911334,59.6654689 4.81049363,59.8196416 5.44473618,59.8196416 C5.89888517,59.8196416 6.34128229,59.7318217 6.77194082,59.5561792 C7.20259934,59.3805367 7.58627118,59.1365924 7.92296784,58.824339 L8.41626514,59.3512639 C8.00909708,59.725968 7.54320985,60.0226042 7.01858946,60.2411816 C6.49396908,60.459759 5.95761151,60.569046 5.40950066,60.569046 C4.63431532,60.569046 3.9217819,60.3816968 3.27187904,60.0069927 C2.62197618,59.6322887 2.10715121,59.1248846 1.72738869,58.4847651 C1.34762618,57.8446457 1.15774777,57.1459893 1.15774777,56.3887748 C1.15774777,55.6315604 1.34958369,54.936807 1.73326128,54.3044939 C2.11693887,53.6721809 2.63567886,53.1706314 3.2894968,52.7998305 C3.94331474,52.4290296 4.65780567,52.243632 5.43299101,52.243632 C5.98893201,52.243632 6.52528958,52.3470643 7.04207981,52.5539322 C7.55887004,52.7608001 8.01301222,53.0476786 8.40451997,53.4145763 L7.92296784,53.9766295 C7.59410133,53.6565698 7.21434451,53.4067709 6.78368599,53.2272252 Z M15.6858752,60.4987893 L13.912354,57.8290363 C13.661789,57.844649 13.4699531,57.8524552 13.3368405,57.8524552 L11.0817671,57.8524552 L11.0817671,60.4987893 L10.2713501,60.4987893 L10.2713501,52.3138886 L13.3368405,52.3138886 C14.3625908,52.3138886 15.1553821,52.5500267 15.7152381,53.0223099 C16.2750942,53.4945932 16.5550181,54.1639763 16.5550181,55.0304794 C16.5550181,55.7096305 16.3905873,56.2755813 16.0617208,56.7283487 C15.7328543,57.1811161 15.263052,57.4972679 14.6522999,57.6768136 L16.6254891,60.4987893 L15.6858752,60.4987893 Z M13.3368405,57.1264697 C14.1198559,57.1264697 14.7227688,56.9488783 15.1455972,56.5936901 C15.5684256,56.2385019 15.7798366,55.7252431 15.7798366,55.0538983 C15.7798366,54.3981662 15.5684256,53.8985683 15.1455972,53.5550896 C14.7227688,53.2116109 14.1198559,53.0398741 13.3368405,53.0398741 L11.0817671,53.0398741 L11.0817671,57.1264697 L13.3368405,57.1264697 Z M24.4882304,52.7998305 C25.1420484,53.1706314 25.6607884,53.6721809 26.044466,54.3044939 C26.4281435,54.936807 26.6199795,55.6315604 26.6199795,56.3887748 C26.6199795,57.1459893 26.4281435,57.8446457 26.044466,58.4847651 C25.6607884,59.1248846 25.1420484,59.6322887 24.4882304,60.0069927 C23.8344125,60.3816968 23.1160065,60.569046 22.3329911,60.569046 C21.5499756,60.569046 20.8315696,60.3816968 20.1777517,60.0069927 C19.5239337,59.6322887 19.0051937,59.1248846 18.6215161,58.4847651 C18.2378386,57.8446457 18.0460026,57.1459893 18.0460026,56.3887748 C18.0460026,55.6315604 18.2378386,54.936807 18.6215161,54.3044939 C19.0051937,53.6721809 19.5239337,53.1706314 20.1777517,52.7998305 C20.8315696,52.4290296 21.5499756,52.243632 22.3329911,52.243632 C23.1160065,52.243632 23.8344125,52.4290296 24.4882304,52.7998305 Z M20.6064505,53.4262857 C20.074,53.7307328 19.6511779,54.1444623 19.3379717,54.6674867 C19.0247655,55.1905111 18.8681648,55.7642681 18.8681648,56.3887748 C18.8681648,57.0132816 19.0247655,57.5909417 19.3379717,58.1217724 C19.6511779,58.6526031 20.074,59.0721873 20.6064505,59.3805375 C21.138901,59.6888877 21.7183238,59.8430605 22.3447362,59.8430605 C22.9633185,59.8430605 23.5368687,59.6888877 24.0654042,59.3805375 C24.5939396,59.0721873 25.0148042,58.6526031 25.3280104,58.1217724 C25.6412166,57.5909417 25.7978173,57.0132816 25.7978173,56.3887748 C25.7978173,55.7642681 25.6412166,55.1905111 25.3280104,54.6674867 C25.0148042,54.1444623 24.5939396,53.7307328 24.0654042,53.4262857 C23.5368687,53.1218387 22.9633185,52.9696174 22.3447362,52.9696174 C21.7183238,52.9696174 21.138901,53.1218387 20.6064505,53.4262857 Z M31.9398907,53.1628232 C31.5405528,53.0496314 31.164711,52.9930363 30.812354,52.9930363 C30.2485828,52.9930363 29.7963982,53.1042749 29.4557864,53.3267554 C29.1151747,53.549236 28.9448714,53.8517269 28.9448714,54.2342373 C28.9448714,54.5699097 29.0388318,54.8431273 29.2267556,55.0538983 C29.4146793,55.2646693 29.6456654,55.4305515 29.9197208,55.5515496 C30.1937762,55.6725478 30.569618,55.8072051 31.0472575,55.9555254 C31.6031985,56.1194584 32.0514681,56.2814375 32.3920799,56.4414673 C32.7326916,56.6014972 33.022403,56.8337321 33.2612227,57.1381792 C33.5000425,57.4426262 33.6194505,57.8446464 33.6194505,58.3442518 C33.6194505,58.7814065 33.4961274,59.1678143 33.2494776,59.5034867 C33.0028277,59.8391591 32.6563485,60.0987158 32.2100297,60.2821646 C31.7637108,60.4656135 31.2508434,60.5573366 30.6714119,60.5573366 C30.0998106,60.5573366 29.5419204,60.4441464 28.9977247,60.2177627 C28.4535289,59.991379 27.9856841,59.6908396 27.5941764,59.3161356 L27.970022,58.6486973 C28.3380392,59.0077887 28.7647763,59.2888125 29.2502459,59.4917772 C29.7357155,59.6947419 30.2133478,59.7962228 30.6831571,59.7962228 C31.3095695,59.7962228 31.8067769,59.6693717 32.1747942,59.4156659 C32.5428114,59.16196 32.7268173,58.820438 32.7268173,58.3910896 C32.7268173,58.0476109 32.6328569,57.766587 32.4449332,57.5480097 C32.2570094,57.3294323 32.0260233,57.1615986 31.7519679,57.0445036 C31.4779125,56.9274086 31.0942406,56.7907998 30.6009409,56.6346731 C30.0449999,56.4629338 29.5986877,56.3009548 29.2619911,56.1487312 C28.9252944,55.9965077 28.639498,55.7701274 28.4045934,55.4695835 C28.1696887,55.1690397 28.0522382,54.7767772 28.0522382,54.2927845 C28.0522382,53.8790488 28.1696887,53.5160597 28.4045934,53.2038063 C28.639498,52.8915529 28.9683596,52.6515117 29.391188,52.4836755 C29.8140164,52.3158394 30.3033937,52.2319225 30.8593347,52.2319225 C31.3056535,52.2319225 31.7539232,52.2982754 32.2041571,52.4309831 C32.654391,52.5636907 33.0517654,52.7393306 33.3962922,52.957908 L33.043937,53.6487651 C32.7072404,53.4379941 32.3392286,53.2760151 31.9398907,53.1628232 Z M39.1625201,53.1628232 C38.7631821,53.0496314 38.3873403,52.9930363 38.0349834,52.9930363 C37.4712122,52.9930363 37.0190275,53.1042749 36.6784158,53.3267554 C36.3378041,53.549236 36.1675007,53.8517269 36.1675007,54.2342373 C36.1675007,54.5699097 36.2614612,54.8431273 36.4493849,55.0538983 C36.6373086,55.2646693 36.8682947,55.4305515 37.1423502,55.5515496 C37.4164056,55.6725478 37.7922474,55.8072051 38.2698868,55.9555254 C38.8258278,56.1194584 39.2740975,56.2814375 39.6147092,56.4414673 C39.955321,56.6014972 40.2450324,56.8337321 40.4838521,57.1381792 C40.7226718,57.4426262 40.8420799,57.8446464 40.8420799,58.3442518 C40.8420799,58.7814065 40.7187568,59.1678143 40.4721069,59.5034867 C40.225457,59.8391591 39.8789779,60.0987158 39.432659,60.2821646 C38.9863402,60.4656135 38.4734728,60.5573366 37.8940413,60.5573366 C37.32244,60.5573366 36.7645498,60.4441464 36.220354,60.2177627 C35.6761583,59.991379 35.2083135,59.6908396 34.8168058,59.3161356 L35.1926513,58.6486973 C35.5606686,59.0077887 35.9874057,59.2888125 36.4728753,59.4917772 C36.9583449,59.6947419 37.4359772,59.7962228 37.9057865,59.7962228 C38.5321989,59.7962228 39.0294062,59.6693717 39.3974235,59.4156659 C39.7654408,59.16196 39.9494467,58.820438 39.9494467,58.3910896 C39.9494467,58.0476109 39.8554862,57.766587 39.6675625,57.5480097 C39.4796388,57.3294323 39.2486527,57.1615986 38.9745973,57.0445036 C38.7005418,56.9274086 38.31687,56.7907998 37.8235702,56.6346731 C37.2676292,56.4629338 36.8213171,56.3009548 36.4846204,56.1487312 C36.1479238,55.9965077 35.8621274,55.7701274 35.6272228,55.4695835 C35.3923181,55.1690397 35.2748675,54.7767772 35.2748675,54.2927845 C35.2748675,53.8790488 35.3923181,53.5160597 35.6272228,53.2038063 C35.8621274,52.8915529 36.190989,52.6515117 36.6138173,52.4836755 C37.0366457,52.3158394 37.5260231,52.2319225 38.0819641,52.2319225 C38.5282829,52.2319225 38.9765525,52.2982754 39.4267865,52.4309831 C39.8770204,52.5636907 40.2743948,52.7393306 40.6189216,52.957908 L40.2665664,53.6487651 C39.9298697,53.4379941 39.561858,53.2760151 39.1625201,53.1628232 Z M48.6343502,52.7120097 C49.3116586,53.0789074 49.8441011,53.5824084 50.2316938,54.2225278 C50.6192865,54.8626473 50.8130799,55.5808193 50.8130799,56.3770654 C50.8130799,57.1811178 50.6192865,57.907096 50.2316938,58.5550218 C49.8441011,59.2029475 49.3116586,59.7142548 48.6343502,60.0889588 C47.9570418,60.4636629 47.1994857,60.6510121 46.3616591,60.6510121 C45.5238325,60.6510121 44.7662764,60.4656144 44.0889679,60.0948136 C43.4116595,59.7240127 42.879217,59.2127054 42.4916243,58.5608765 C42.1040316,57.9090476 41.9102382,57.1811178 41.9102382,56.3770654 C41.9102382,55.5808193 42.1040316,54.8626473 42.4916243,54.2225278 C42.879217,53.5824084 43.4116595,53.0789074 44.0889679,52.7120097 C44.7662764,52.345112 45.5238325,52.1616659 46.3616591,52.1616659 C47.1994857,52.1616659 47.9570418,52.345112 48.6343502,52.7120097 Z M45.2517401,54.2927845 C44.9032983,54.5035555 44.6272894,54.7943371 44.4237054,55.165138 C44.2201214,55.5359389 44.1183309,55.9438138 44.1183309,56.3887748 C44.1183309,56.8415422 44.2220789,57.2533202 44.429578,57.6241211 C44.6370771,57.994922 44.9130859,58.2876551 45.2576127,58.5023293 C45.6021396,58.7170035 45.9779814,58.824339 46.3851494,58.824339 C46.7923175,58.824339 47.1662018,58.7170035 47.5068135,58.5023293 C47.8474252,58.2876551 48.115604,57.994922 48.3113579,57.6241211 C48.5071118,57.2533202 48.6049873,56.8415422 48.6049873,56.3887748 C48.6049873,55.9438138 48.5071118,55.5359389 48.3113579,55.165138 C48.115604,54.7943371 47.8474252,54.5035555 47.5068135,54.2927845 C47.1662018,54.0820135 46.7923175,53.9766295 46.3851494,53.9766295 C45.9779814,53.9766295 45.600182,54.0820135 45.2517401,54.2927845 Z M51.0238406,52.2904697 L53.3376398,52.2904697 L55.3930452,58.2271574 L57.4601958,52.2904697 L59.6682884,52.2904697 L56.4501108,60.4987893 L54.2185278,60.4987893 L51.0238406,52.2904697 Z M60.5250336,52.2904697 L67.0201147,52.2904697 L67.0201147,54.0000484 L62.6744004,54.0000484 L62.6744004,55.5339855 L66.5972885,55.5339855 L66.5972885,57.2318547 L62.6744004,57.2435642 L62.6744004,58.7892107 L67.1375664,58.7892107 L67.1375664,60.4987893 L60.5250336,60.4987893 L60.5250336,52.2904697 Z M73.4793078,60.4987893 L72.2813001,58.2271574 L70.6839564,58.2271574 L70.6839564,60.4987893 L68.5345896,60.4987893 L68.5345896,52.2904697 L72.2343194,52.2904697 C73.3227109,52.2904697 74.1663974,52.5422202 74.7654043,53.0457288 C75.3644112,53.5492374 75.6639101,54.2576516 75.6639101,55.1709927 C75.6639101,55.7876932 75.5386295,56.3204675 75.2880645,56.7693317 C75.0374996,57.2181959 74.6734028,57.5675242 74.1957634,57.8173269 L75.9105587,60.4987893 L73.4793078,60.4987893 Z M70.6839564,56.5175787 L72.2460645,56.5175787 C72.6845532,56.5175787 73.0232023,56.4082916 73.2620221,56.1897143 C73.5008418,55.9711369 73.6202499,55.6549851 73.6202499,55.2412494 C73.6202499,54.8431263 73.5008418,54.5367323 73.2620221,54.3220581 C73.0232023,54.1073839 72.6845532,54.0000484 72.2460645,54.0000484 L70.6839564,54.0000484 L70.6839564,56.5175787 Z" id="CROSSOVER" fill="#FFFFFF"></path>
                        <g id="Group-2" stroke-width="1" transform="translate(1.054054, 1.351090)">
                            <g id="Group" transform="translate(34.030888, 3.002421)">
                                <mask id="mask-3" fill="white">
                                    <use xlink:href="#path-2"></use>
                                </mask>
                                <use id="Mask" fill="#FFFFFF" xlink:href="#path-2"></use>
                                <g mask="url(#mask-3)" id="Rectangle" fill="#1A1915">
                                    <g transform="translate(10.691120, 10.508475)">
                                        <rect transform="translate(10.224651, 10.183571) rotate(-315.000000) translate(-10.224651, -10.183571) " x="-1.7564756" y="7.79772325" width="23.962254" height="4.77169511"></rect>
                                        <rect transform="translate(10.224651, 10.183571) rotate(-45.000000) translate(-10.224651, -10.183571) " x="-1.7564756" y="7.79772325" width="23.962254" height="4.77169511"></rect>
                                    </g>
                                </g>
                            </g>
                            <path d="M23.9420849,47.7384988 C29.1460541,47.7384988 35.4601126,44.8739508 37.4942085,43.08715 C35.6361855,41.0529306 35.3802852,40.8844837 33.2259069,38.8721913 C21.2347929,46.193682 5.54345374,38.8721913 5.2986787,23.8692494 C5.05390367,8.86630753 21.3035661,1.49627441 33.0993361,8.86259593 C36.4636963,5.40145973 36.4969819,5.4602026 37.4942085,4.38984227 C33.8428811,2.02253002 30.3521871,0.196389546 23.9420849,5.68434189e-14 C10.7192366,5.68434189e-14 0,10.686627 0,23.8692494 C0,37.0518718 10.7192366,47.7384988 23.9420849,47.7384988 Z" id="Oval" fill="#FFFFFF"></path>
                        </g>
                    </g>
                </g>
            </g>
        </g>
    </g>
</svg>